<mxfile host="app.diagrams.net" agent="Mozilla/5.0 (Windows NT 10.0; Win64; x64) AppleWebKit/537.36 (KHTML, like Gecko) Chrome/130.0.0.0 Safari/537.36" version="24.8.6">
  <diagram name="Page-1" id="Rl6WeD1U9-hgHpHKz3Tf">
    <mxGraphModel dx="1290" dy="565" grid="1" gridSize="10" guides="1" tooltips="1" connect="1" arrows="1" fold="1" page="1" pageScale="1" pageWidth="827" pageHeight="1169" math="0" shadow="0">
      <root>
        <mxCell id="0" />
        <mxCell id="1" parent="0" />
        <mxCell id="hVGjfCEO5_Mbvfgh8cSv-3" style="edgeStyle=orthogonalEdgeStyle;rounded=0;orthogonalLoop=1;jettySize=auto;html=1;" edge="1" parent="1" source="hVGjfCEO5_Mbvfgh8cSv-1" target="hVGjfCEO5_Mbvfgh8cSv-2">
          <mxGeometry relative="1" as="geometry" />
        </mxCell>
        <mxCell id="hVGjfCEO5_Mbvfgh8cSv-5" style="edgeStyle=orthogonalEdgeStyle;rounded=0;orthogonalLoop=1;jettySize=auto;html=1;" edge="1" parent="1" source="hVGjfCEO5_Mbvfgh8cSv-1" target="hVGjfCEO5_Mbvfgh8cSv-4">
          <mxGeometry relative="1" as="geometry" />
        </mxCell>
        <mxCell id="hVGjfCEO5_Mbvfgh8cSv-1" value="Key, Value&lt;div&gt;(Passed to the LinkedListDict)&lt;/div&gt;" style="rounded=0;whiteSpace=wrap;html=1;" vertex="1" parent="1">
          <mxGeometry x="320" y="130" width="190" height="60" as="geometry" />
        </mxCell>
        <mxCell id="hVGjfCEO5_Mbvfgh8cSv-2" value="Document Title Stored as Key" style="rounded=0;whiteSpace=wrap;html=1;" vertex="1" parent="1">
          <mxGeometry x="250" y="260" width="120" height="60" as="geometry" />
        </mxCell>
        <mxCell id="hVGjfCEO5_Mbvfgh8cSv-4" value="Content is stored in Values that is a linked list" style="rounded=0;whiteSpace=wrap;html=1;" vertex="1" parent="1">
          <mxGeometry x="480" y="260" width="120" height="60" as="geometry" />
        </mxCell>
      </root>
    </mxGraphModel>
  </diagram>
</mxfile>
